#!OML:ASF H:\Terrain\Patient Classification 1\Terrain2\Thursday\justin.ASF
:FULLY-SPECIFIED
:DEGREES
4277
root 16.5989 20.7817 -0.00115784 716.876 -240.746 -361.884
lowerback 6.50544 -0.395837 -1.1447
upperback 2.25799 -0.480155 1.98839
thorax -1.29214 -0.211784 2.72606
lowerneck -14.0741 -1.72536 -7.92954
upperneck 40.9528 2.81764 0.545381
head 17.3768 0.905325 2.47656
rclavicle -4.85035e-014 -3.18055e-015
rhumerus -32.6588 -19.3466 -74.5596
rradius 22.7792
rwrist -5.0625
rhand -22.7786 12.3852
rfingers 7.12502
rthumb 3.65693 -17.5632
lclavicle -4.85035e-014 -3.18055e-015
lhumerus -32.7601 4.8011 86.3212
lradius 35.8354
lwrist 6.06394
lhand -18.0285 21.3281
lfingers 7.12502
lthumb 8.24284 51.1473
rfemur -19.1369 -4.68095 17.2344
rtibia 53.4374
rfoot -17.603 -7.77067
rtoes -0.445184
lfemur -7.97646 -0.365213 -23.5682
ltibia 24.8674
lfoot -9.45756 -16.6278
ltoes 25.4909
4278
root 16.6216 20.8043 0.00597888 717.374 -239.888 -361.448
lowerback 6.57883 -0.702767 -1.32232
upperback 2.18921 -0.887447 2.34762
thorax -1.37173 -0.412703 3.2302
lowerneck -14.0675 -1.46729 -8.53981
upperneck 40.9528 3.4602 0.535196
head 17.3404 1.0786 2.69617
rclavicle 4.19436e-014 -2.38542e-015
rhumerus -32.6171 -18.3118 -74.5969
rradius 22.6437
rwrist -5.22566
rhand -23.2119 12.4105
rfingers 7.12502
rthumb 3.23846 -17.5446
lclavicle 4.19436e-014 -2.38542e-015
lhumerus -32.9698 5.81056 86.3314
lradius 35.7631
lwrist 6.28774
lhand -17.93 21.5282
lfingers 7.12502
lthumb 8.33793 51.3436
rfemur -19.3101 -3.32287 17.238
rtibia 53.1351
rfoot -18.3879 -6.56298
rtoes 3.73587
lfemur -8.10696 -0.491423 -23.2824
ltibia 24.9068
lfoot -9.4797 -17.1313
ltoes 23.7098
4279
root 16.6445 20.8024 0.00952093 718.187 -239.036 -360.531
lowerback 6.6766 -0.824215 -0.96559
upperback 2.18559 -1.01474 2.53751
thorax -1.42454 -0.472337 3.23689
lowerneck -13.984 -1.42709 -8.81095
upperneck 40.8741 3.53894 0.706691
head 17.2611 1.10156 2.83229
rclavicle -6.5102e-014 1.98785e-014
rhumerus -32.7687 -17.8145 -74.6929
rradius 22.5711
rwrist -5.6019
rhand -23.516 12.6674
rfingers 7.12502
rthumb 2.9448 -17.292
lclavicle -6.5102e-014 1.98785e-014
lhumerus -33.1217 6.11145 86.2806
lradius 35.7263
lwrist 6.33506
lhand -18.3718 21.4635
lfingers 7.12502
lthumb 7.91149 51.2954
rfemur -19.2196 -2.12055 17.61
rtibia 52.5808
rfoot -18.8099 -6.19708
rtoes 3.25168
lfemur -8.36103 -0.68868 -22.7295
ltibia 25.4167
lfoot -10.1603 -17.6036
ltoes 20.4789
4280
root 16.6696 20.797 0.0128808 718.843 -238.129 -359.785
lowerback 6.78193 -0.852627 -0.602524
upperback 2.1509 -1.01773 2.69529
thorax -1.5225 -0.469616 3.19807
lowerneck -13.7784 -1.45088 -8.91486
upperneck 40.7036 3.47742 0.783862
head 17.1125 1.08706 2.86499
rclavicle 9.30312e-014 1.11319e-014
rhumerus -33.1009 -18.2217 -74.1966
rradius 22.3416
rwrist -4.73376
rhand -22.9179 13.5411
rfingers 7.12502
rthumb 3.52236 -16.4095
lclavicle 9.30312e-014 1.11319e-014
lhumerus -33.2272 6.13486 86.3429
lradius 35.4866
lwrist 5.99198
lhand -18.656 21.0118
lfingers 7.12502
lthumb 7.63723 50.8539
rfemur -19.1429 -1.27096 17.8779
rtibia 52.0138
rfoot -19.4509 -5.66039
rtoes 0.701075
lfemur -8.32281 -1.01132 -22.2436
ltibia 25.3097
lfoot -10.1466 -18.2443
ltoes 20.4139
4281
root 16.7007 20.7964 0.0238549 718.845 -237.324 -359.775
lowerback 6.8415 -0.907286 -0.729694
upperback 2.14935 -1.09505 2.75404
thorax -1.54872 -0.50721 3.33821
lowerneck -13.66 -1.40107 -8.98175
upperneck 40.6158 3.56132 0.812329
head 17.026 1.1268 2.89959
rclavicle 5.84427e-014 -1.03368e-014
rhumerus -33.4588 -19.6347 -73.2593
rradius 21.8755
rwrist -1.90388
rhand -21.8182 14.7225
rfingers 7.12502
rthumb 4.58431 -15.2079
lclavicle 5.84427e-014 -1.03368e-014
lhumerus -33.2371 6.07213 86.3728
lradius 35.0807
lwrist 6.29406
lhand -19.6662 20.1923
lfingers 7.12502
lthumb 6.66201 50.0675
rfemur -19.1564 -0.215707 17.6649
rtibia 51.3376
rfoot -20.0295 -4.3994
rtoes 0.516835
lfemur -8.24313 -1.24822 -22.1218
ltibia 25.1929
lfoot -9.87243 -18.9153
ltoes 22.0422
4282
root 16.7308 20.7952 0.032508 718.336 -236.41 -360.34
lowerback 6.87718 -1.00403 -1.09379
upperback 2.2149 -1.2538 2.61449
thorax -1.48571 -0.588686 3.41152
lowerneck -13.6744 -1.37604 -8.87737
upperneck 40.576 3.55939 0.844964
head 17.0052 1.15026 2.89493
rclavicle 1.46107e-014 -1.98785e-014
rhumerus -33.6318 -20.2409 -73.0675
rradius 21.6503
rwrist -0.597367
rhand -21.1295 15.0844
rfingers 7.12502
rthumb 5.2493 -14.8305
lclavicle 1.46107e-014 -1.98785e-014
lhumerus -33.2575 5.81411 86.2427
lradius 34.9004
lwrist 6.73036
lhand -20.4582 19.7898
lfingers 7.12502
lthumb 5.89748 49.6878
rfemur -19.1343 0.973254 16.9905
rtibia 50.5716
rfoot -20.417 -2.35501
rtoes 3.71866
lfemur -8.12774 -1.51477 -22.3739
ltibia 25.0388
lfoot -9.46027 -19.5041
ltoes 23.4854
4283
root 16.7628 20.7978 0.0294551 717.935 -235.408 -360.838
lowerback 6.78006 -1.11952 -1.30953
upperback 2.30018 -1.4265 2.47793
thorax -1.33019 -0.678221 3.40133
lowerneck -13.6082 -1.35293 -8.86217
upperneck 40.3923 3.54015 0.889723
head 16.8844 1.15768 2.89935
rclavicle 1.98785e-015 -3.97569e-015
rhumerus -33.6624 -19.4556 -73.551
rradius 21.7852
rwrist -1.55653
rhand -21.1307 16.203
rfingers 7.12502
rthumb 5.24814 -13.712
lclavicle 1.98785e-015 -3.97569e-015
lhumerus -33.3729 5.71975 86.1293
lradius 34.8979
lwrist 6.94875
lhand -19.8878 20.1945
lfingers 7.12502
lthumb 6.44812 50.0763
rfemur -19.0413 2.024 16.3179
rtibia 49.7302
rfoot -20.8741 -0.645268
rtoes 5.16148
lfemur -8.00966 -1.9041 -22.6936
ltibia 24.8827
lfoot -9.46633 -19.8607
ltoes 22.5533
4284
root 16.8011 20.7919 0.0259826 718.406 -234.608 -360.317
lowerback 6.63004 -1.17254 -0.99114
upperback 2.36696 -1.47185 2.52352
thorax -1.18234 -0.700568 3.26722
lowerneck -13.6532 -1.33365 -8.76661
upperneck 40.3932 3.57295 0.871148
head 16.895 1.18824 2.88267
rclavicle -2.94201e-014 1.74931e-014
rhumerus -33.8172 -19.2447 -73.7459
rradius 21.8863
rwrist -2.09933
rhand -21.7714 17.8146
rfingers 7.12502
rthumb 4.62954 -12.1148
lclavicle -2.94201e-014 1.74931e-014
lhumerus -33.3895 5.78874 86.0383
lradius 34.6148
lwrist 6.90194
lhand -19.5466 20.4073
lfingers 7.12502
lthumb 6.77756 50.2788
rfemur -18.9014 3.06194 16.4626
rtibia 48.8013
rfoot -21.3723 -0.123451
rtoes 1.31312
lfemur -7.90882 -2.09458 -22.3394
ltibia 24.8087
lfoot -9.66145 -20.3072
ltoes 21.256
4285
root 16.8375 20.7815 0.0288327 718.893 -233.854 -359.854
lowerback 6.54383 -1.07495 -0.670067
upperback 2.36577 -1.32158 2.49698
thorax -1.15384 -0.624132 3.04551
lowerneck -13.9894 -1.48519 -8.44138
upperneck 40.7806 3.38504 0.838565
head 17.2133 1.15385 2.80759
rclavicle -1.57437e-013 -1.43125e-014
rhumerus -34.1473 -19.8357 -73.6779
rradius 21.9198
rwrist -2.33509
rhand -22.4589 18.1465
rfingers 7.12502
rthumb 3.96567 -11.7964
lclavicle -1.57437e-013 -1.43125e-014
lhumerus -33.3039 5.44395 85.9743
lradius 34.2231
lwrist 6.62887
lhand -19.5188 20.5854
lfingers 7.12502
lthumb 6.80431 50.4561
rfemur -18.8046 4.2374 16.6049
rtibia 47.8288
rfoot -21.7522 0.675595
rtoes -0.847967
lfemur -7.99962 -2.24196 -21.9514
ltibia 24.8664
lfoot -9.60066 -20.9306
ltoes 21.0472
